<svg width="192" height="192" viewBox="0 0 192 192" fill="none" xmlns="http://www.w3.org/2000/svg">
  <rect width="192" height="192" rx="24" fill="#020617"/>
  <path d="M96 48C120 48 140 68 140 92C140 116 120 136 96 136C72 136 52 116 52 92C52 68 72 48 96 48Z" fill="#6366f1"/>
  <path d="M96 64C110 64 122 76 122 90C122 104 110 116 96 116C82 116 70 104 70 90C70 76 82 64 96 64Z" fill="#020617"/>
  <path d="M96 76C104 76 110 82 110 90C110 98 104 104 96 104C88 104 82 98 82 90C82 82 88 76 96 76Z" fill="#6366f1"/>
  <path d="M60 140C60 140 76 120 96 120C116 120 132 140 132 140" stroke="#6366f1" stroke-width="4" stroke-linecap="round"/>
</svg>
